<svg viewBox="0 0 1000 1000" xmlns="http://www.w3.org/2000/svg"><defs><clipPath id="a"><path fill="currentColor" d="M687.5 570q5.5 70-19.5 219.5t-141.5 68Q410 776 328 730T202 592q-44-92 56.5-143.5t103.5-208q3-156.5 143-172T702.5 182Q760 311 721 405.5T687.5 570Z"/></clipPath><pattern id="b" patternUnits="userSpaceOnUse" width="25" height="25" viewBox="0 0 100 100" fill="white"><circle cx="50" cy="50" r="12.5"/></pattern></defs><g clip-path="url(#a)"><path fill="url(#b)" d="M687.5 570q5.5 70-19.5 219.5t-141.5 68Q410 776 328 730T202 592q-44-92 56.5-143.5t103.5-208q3-156.5 143-172T702.5 182Q760 311 721 405.5T687.5 570Z"/></g></svg>