<svg viewBox="0 0 1000 1000" xmlns="http://www.w3.org/2000/svg"><defs><clipPath id="a"><path fill="currentColor" d="M813 565.5Q657 631 602.5 701T419 817.5q-129 46.5-99-108T291.5 479Q233 403 315 362.5t174-181q92-140.5 138.5 16t194 229.5Q969 500 813 565.5Z"/></clipPath><pattern id="b" patternUnits="userSpaceOnUse" width="25" height="25" viewBox="0 0 100 100" fill="#ff583d"><circle cx="50" cy="50" r="12.5"/></pattern></defs><g clip-path="url(#a)"><path fill="url(#b)" d="M813 565.5Q657 631 602.5 701T419 817.5q-129 46.5-99-108T291.5 479Q233 403 315 362.5t174-181q92-140.5 138.5 16t194 229.5Q969 500 813 565.5Z"/></g></svg>