<svg viewBox="0 0 1000 1000" xmlns="http://www.w3.org/2000/svg"><defs><clipPath id="a"><path fill="currentColor" d="M769.5 623q68.5 123-42 180T495 876q-122 16-139.5-121T217 559Q96 500 101.5 357t176-80q170.5 63 235 24.5t166-21.5q101.5 17 62 118.5t29 224.5Z"/></clipPath><pattern id="b" patternUnits="userSpaceOnUse" width="25" height="25" viewBox="0 0 100 100" fill="white" patternTransform="rotate(45 0 0)"><path d="M0 0v100" stroke="#212121" stroke-width="20"/></pattern></defs><g clip-path="url(#a)"><path fill="url(#b)" d="M769.5 623q68.5 123-42 180T495 876q-122 16-139.5-121T217 559Q96 500 101.5 357t176-80q170.5 63 235 24.5t166-21.5q101.5 17 62 118.5t29 224.5Z"/></g></svg>